<svg width="53" height="53" viewBox="0 0 53 53" fill="none" xmlns="http://www.w3.org/2000/svg">
<g filter="url(#filter0_d_25_5)">
<circle cx="26.5" cy="22.5" r="21.5" fill="white" stroke="#66C05D" stroke-width="2"/>
<g clip-path="url(#clip0_25_5)">
<path d="M30.125 12H21.875C18.0786 12 15 15.0786 15 18.875V27.125C15 30.9214 18.0786 34 21.875 34H30.125C33.9214 34 37 30.9214 37 27.125V18.875C37 15.0786 33.9214 12 30.125 12ZM34.9375 27.125C34.9375 29.7787 32.7787 31.9375 30.125 31.9375H21.875C19.2213 31.9375 17.0625 29.7787 17.0625 27.125V18.875C17.0625 16.2213 19.2213 14.0625 21.875 14.0625H30.125C32.7787 14.0625 34.9375 16.2213 34.9375 18.875V27.125Z" fill="#66C05D"/>
<path d="M26 17.5C22.9626 17.5 20.5 19.9626 20.5 23C20.5 26.0374 22.9626 28.5 26 28.5C29.0374 28.5 31.5 26.0374 31.5 23C31.5 19.9626 29.0374 17.5 26 17.5ZM26 26.4375C24.1052 26.4375 22.5625 24.8948 22.5625 23C22.5625 21.1039 24.1052 19.5625 26 19.5625C27.8948 19.5625 29.4375 21.1039 29.4375 23C29.4375 24.8948 27.8948 26.4375 26 26.4375Z" fill="#66C05D"/>
<path d="M31.9125 17.8204C32.3173 17.8204 32.6454 17.4923 32.6454 17.0876C32.6454 16.6828 32.3173 16.3547 31.9125 16.3547C31.5077 16.3547 31.1796 16.6828 31.1796 17.0876C31.1796 17.4923 31.5077 17.8204 31.9125 17.8204Z" fill="#66C05D"/>
</g>
</g>
<defs>
<filter id="filter0_d_25_5" x="0" y="0" width="53" height="53" filterUnits="userSpaceOnUse" color-interpolation-filters="sRGB">
<feFlood flood-opacity="0" result="BackgroundImageFix"/>
<feColorMatrix in="SourceAlpha" type="matrix" values="0 0 0 0 0 0 0 0 0 0 0 0 0 0 0 0 0 0 127 0" result="hardAlpha"/>
<feOffset dy="4"/>
<feGaussianBlur stdDeviation="2"/>
<feComposite in2="hardAlpha" operator="out"/>
<feColorMatrix type="matrix" values="0 0 0 0 0 0 0 0 0 0 0 0 0 0 0 0 0 0 0.25 0"/>
<feBlend mode="normal" in2="BackgroundImageFix" result="effect1_dropShadow_25_5"/>
<feBlend mode="normal" in="SourceGraphic" in2="effect1_dropShadow_25_5" result="shape"/>
</filter>
<clipPath id="clip0_25_5">
<rect width="22" height="22" fill="white" transform="translate(15 12)"/>
</clipPath>
</defs>
</svg>
